<svg xmlns="http://www.w3.org/2000/svg" viewBox="0 0 322.52 227.12"><defs><style>.cls-1{fill:#0079be;}.cls-2{fill:#fff;}</style></defs><g id="Layer_2" data-name="Layer 2"><g id="Layer_1-2" data-name="Layer 1"><rect class="cls-1" width="322.52" height="227.12" rx="22.23"/><path class="cls-2" d="M244.05,114.13c0-39.2-32.72-66.3-68.58-66.29H144.62c-36.29,0-66.15,27.09-66.15,66.29,0,35.86,29.86,65.32,66.15,65.15h30.85C211.32,179.45,244.05,150,244.05,114.13Z"/><path class="cls-1" d="M144.81,53.39a60.17,60.17,0,1,0,60,60.17,60.12,60.12,0,0,0-60-60.17Z"/><path class="cls-2" d="M106.87,113.4A38.18,38.18,0,0,1,131.3,77.81V149A38.17,38.17,0,0,1,106.87,113.4ZM158.53,149V77.81a38.14,38.14,0,0,1,0,71.19Z"/></g></g></svg>