<svg xmlns="http://www.w3.org/2000/svg" viewBox="0 0 322.52 227.12"><defs><style>.cls-1{fill:#231f20;}.cls-2{fill:#fff;}.cls-3{fill:#ef3120;}.cls-4{fill:#fbc707;}.cls-5{fill:#38a7e4;}</style></defs><g id="Layer_2" data-name="Layer 2"><g id="Layer_1-2" data-name="Layer 1"><rect class="cls-1" width="322.52" height="227.12" rx="29.88"/><g id="g46"><path id="path48" class="cls-2" d="M247.53,133.65a14,14,0,0,1-4.5-.74l-3.82,11.36a26.2,26.2,0,0,0,34-19.56l-11.74-2.39a14.21,14.21,0,0,1-13.93,11.33"/></g><g id="g30"><path id="path32" class="cls-3" d="M117,118.63A25.27,25.27,0,0,1,84.2,137.51l-5.6,16.75a43,43,0,0,0,55.66-32.09Z"/></g><g id="g22"><path id="path24" class="cls-4" d="M84.21,89.61A25.29,25.29,0,0,1,117,108.52l17.3-3.53A42.94,42.94,0,0,0,78.62,72.86Z"/></g><g id="g26"><path id="path28" class="cls-5" d="M63.79,145.7l11.7-13.23a25.24,25.24,0,0,1,0-37.8L63.78,81.43a42.91,42.91,0,0,0,0,64.27"/></g><g id="g34"><path id="path36" class="cls-2" d="M184,127.81s0,0,0,0l-.5-.34a13.85,13.85,0,0,1-6.41,5.37c-5.32,2.31-10.24,1.72-13.77-1.38L163,132h0l-6,9a25.28,25.28,0,0,0,4.79,2.62A26.15,26.15,0,0,0,193.16,134Zm-18.81-22.25c-5.61,2.41-8.5,7.67-7.9,13.84L181,109.18c-4.08-4.8-9.4-6.39-15.85-3.62M149.4,133a31.41,31.41,0,0,1-1.81-3.47,26.32,26.32,0,0,1,13.13-34.21,26.36,26.36,0,0,1,24.21,1.76c4.8,2.76,8.21,7,10.8,13,.33.77.61,1.6.9,2.29Z"/></g><g id="g38"><path id="path40" class="cls-2" d="M213.14,82.07V132.2l7.79,3.15-4.43,10.33-8.6-3.57a9.84,9.84,0,0,1-4.24-3.56,11.26,11.26,0,0,1-1.66-6.22V82.07Z"/></g><g id="g42"><path id="path44" class="cls-2" d="M233.32,119.43a14.21,14.21,0,0,1,4.88-10.7l-8-8.91a26.19,26.19,0,0,0,0,39.22l8-8.93a14.2,14.2,0,0,1-4.84-10.68"/></g><g id="g50"><path id="path52" class="cls-2" d="M247.57,93.25a26.21,26.21,0,0,0-8.31,1.34L243.05,106a14.21,14.21,0,0,1,18.42,10.66l11.74-2.38a26.19,26.19,0,0,0-25.64-21"/></g></g></g></svg>