<svg xmlns="http://www.w3.org/2000/svg" viewBox="0 0 322.52 227.12"><defs><style>.cls-1{fill:#b3131b;}.cls-2{fill:#fff;}</style></defs><g id="Layer_2" data-name="Layer 2"><g id="Layer_1-2" data-name="Layer 1"><rect class="cls-1" width="322.52" height="227.12" rx="22.23"/><path class="cls-2" d="M89.8,92.55h.9l.72-.25.71-.24.64-.64.63-.65.34-.85.33-.86V86.55l-.29-.5-.3-.49L93,85.24l-.51-.32H90.23l-.76.34-.76.34-.44.47-.44.48-.34.81-.35.82-.07,1.27L87,90.72l.32.63.32.64.63.28.62.28Zm143.63,36.22h3.24v-2l.37-2.46c.21-1.35.54-3.49.75-4.76s.47-2.87.58-3.56.4-2.2.64-3.34.55-2.38.68-2.75a4.51,4.51,0,0,0,.24-.85,10.05,10.05,0,0,1,.61-1.48l.62-1.3.8-1.07.81-1.07.88-.67a12.79,12.79,0,0,1,1.74-1.07l.85-.42,1.86,0H250l.73.23.73.24.13-.08.12-.07v-.48a18.36,18.36,0,0,1,.35-2.15l.35-1.68-.39-.16-1.14-.38-.74-.24h-2.67l-1.09.39-1.09.38-.82.49-.81.49-1.07,1.12-1.06,1.11-.57.86a4,4,0,0,1-.61.82,19.94,19.94,0,0,1,.38-2.2c.23-1.18.42-2.3.42-2.49V97.9h-5.49V98s-.14,1-.31,2.11-.5,3.26-.74,4.77q-.44,2.7-.89,5.42c-.26,1.56-.53,3.11-.82,4.67-.2,1.1-.57,3-.81,4.31s-.64,3.3-.88,4.52l-.72,3.6-.27,1.37Zm-75.23,0h3.16l.1-1.34c0-.73.23-2.22.4-3.3s.51-3.23.76-4.78c.31-1.92.66-3.83,1-5.74.32-1.6.68-3.2.8-3.54a4.28,4.28,0,0,0,.22-.83,8.28,8.28,0,0,1,.53-1.36,18.64,18.64,0,0,1,1.21-2.15l.68-1,.9-.84.91-.84,1.11-.53,1.12-.54h3.41l.84.25a9.54,9.54,0,0,0,.93.25c.05,0,.09-.16.09-.35s.17-1.17.37-2.17.37-1.87.37-1.92a4,4,0,0,0-1.07-.42,13.77,13.77,0,0,0-1.82-.42l-.74-.09-1,.17a13.08,13.08,0,0,0-1.75.46,10.38,10.38,0,0,0-1.6.8,12.4,12.4,0,0,0-1.52,1.23,17.33,17.33,0,0,0-1.49,1.75c-.33.44-.65.89-1,1.33l-.22.3.13-.59c.07-.33.27-1.4.44-2.38s.35-1.9.39-2l.08-.26h-5.66v.36c0,.19-.17,1.38-.37,2.63s-.54,3.35-.75,4.65-.58,3.58-.82,5-.53,3.12-.82,4.68q-.84,4.45-1.71,8.9c-.25,1.27-.55,2.76-.67,3.32s-.21,1.08-.21,1.15v.14h3.18Zm-74.68,0h3.19l.09-.23a2.77,2.77,0,0,0,.09-.75c0-.29.2-1.77.45-3.29q.84-5.22,1.72-10.42c.25-1.46.52-2.92.8-4.38.23-1.22.6-3.13.8-4.23s.62-3.2.91-4.66.56-2.71.61-2.78l.08-.14-3.23,0L85.8,98l-.27,1.93c-.15,1.07-.47,3.17-.72,4.68s-.62,3.82-.83,5.12q-.37,2.34-.81,4.68c-.24,1.26-.6,3.2-.81,4.3s-.58,3-.83,4.31-.58,2.93-.73,3.71-.33,1.56-.38,1.74l-.09.33Zm-39.93,0H47.2l.26-1.59c.14-.88.42-2.57.62-3.75l.81-4.9c.26-1.51.63-3.75.84-5s.54-3.12.74-4.22.4-2,.44-2.08l.09-.08H70.39l.11.11.11.1-.17.86c-.09.47-.37,1.93-.61,3.23s-.65,3.51-.9,4.9-.54,2.92-.82,4.38c-.2,1-.59,3.16-.88,4.75s-.53,3-.52,3.08v.18H74l.16-.92c.09-.51.23-1.43.32-2s.29-1.92.45-2.9.5-2.92.74-4.3.64-3.76.89-5.27.62-3.72.82-4.9c.26-1.49.53-3,.81-4.45.24-1.27.63-3.41.88-4.75s.62-3.39.83-4.53.58-3.22.83-4.6.58-3,.71-3.6l.25-1.08H74.31l-.1.71c0,.38-.23,1.47-.39,2.41s-.46,2.61-.66,3.71-.56,3.21-.8,4.68-.47,2.88-.69,4.32l-.25,1.65L66,103l-5.38.11L56.15,103c-2.48-.06-4.52-.12-4.54-.13a11.74,11.74,0,0,1,.19-1.28c.16-.9.32-1.78.5-2.67.23-1.14.45-2.28.67-3.42s.44-2.47.52-3,.24-1.52.37-2.11.36-1.84.52-2.77.34-1.8.39-1.93l.09-.24H47.59l-.23,1.3c-.13.71-.3,1.73-.38,2.26s-.36,2.24-.61,3.79-.62,3.85-.82,5.12L44.74,103c-.29,1.78-.59,3.57-.91,5.34-.26,1.47-.53,2.92-.81,4.38-.19,1-.56,3-.81,4.31s-.55,2.82-.84,4.23c-.2,1-.42,2.11-.49,2.52s-.3,1.59-.51,2.62-.38,2-.38,2.11v.24Zm215.93.73,1.41,0,1.34-.22c.74-.12,1.67-.31,2.08-.43a9.55,9.55,0,0,0,1.63-.67l.89-.45.77-.68.76-.67.81-1.08a10.6,10.6,0,0,0,.89-1.29l.09-.23-.07.74c-.06.5-.13,1-.21,1.49s-.17,1.19-.23,1.74l-.1,1h5.83v-2l.44-3.78c.24-2.09.61-4.86.8-6.16s.5-3.18.68-4.16.48-2.75.69-3.93.57-3.26.81-4.61.64-3.48.88-4.75.6-3.23.81-4.37.59-3.15.84-4.46.53-2.72.81-4.08c.2-.94.36-1.76.36-1.82v-.11h-6.35l-.1.93c-.05.51-.29,2.2-.54,3.75-.29,1.83-.58,3.66-.89,5.49-.17,1.05-.35,2.11-.52,3.17l-.08.49-.25-.11c-.14-.06-.88-.26-1.66-.46l-1.41-.35-1.93-.15-1.93-.15-1.63.15-1.63.15-1.49.38-1.48.37-1.41.69-1.41.69-1,.77-1,.77-.9,1a21,21,0,0,0-1.58,1.94l-.69,1-.81,1.68c-.44.92-1,2.14-1.2,2.71s-.59,1.84-.85,2.82l-.45,1.78-.22,2.3-.23,2.31.17,1.85.17,1.86.2.67c.11.36.34,1,.51,1.45l.31.79.58.77.57.77.65.54.65.53.89.45a12.26,12.26,0,0,0,1.83.69,15.58,15.58,0,0,0,1.85.38c.51.07,1.56.13,2.33.14Zm2.54-4.21-1.13.06-.75-.14a8.69,8.69,0,0,1-1.48-.45l-.72-.31-.61-.5-.61-.49-.9-1.74-.21-1-.21-1,0-1.93,0-1.93.24-1.7.24-1.71.37-1.19a12.24,12.24,0,0,0,.37-1.37,8.89,8.89,0,0,1,.45-1.18c.29-.64.59-1.28.91-1.9a16.71,16.71,0,0,1,1.07-1.7,14.19,14.19,0,0,1,1.3-1.48,10.52,10.52,0,0,1,1.37-1.09l.66-.41,1.17-.4,1.17-.4h4.89l1.41.4c.78.21,1.6.46,1.83.55l.42.16-.08.41c0,.22-.22,1.21-.39,2.19s-.51,2.85-.75,4.16-.61,3.27-.82,4.37-.51,2.51-.67,3.12l-.51,1.89a12,12,0,0,1-.63,1.63,12.27,12.27,0,0,1-.87,1.53,10.13,10.13,0,0,1-1,1.13,13.81,13.81,0,0,1-1.31,1l-.82.55-2.36.75-1.12.06Zm-52.71,4.15,2-.05,1.26-.33,1.26-.32.82-.39a15,15,0,0,0,1.63-.93,13,13,0,0,0,1.54-1.26,16.78,16.78,0,0,0,1.32-1.51,4,4,0,0,1,.64-.74,12.92,12.92,0,0,1-.17,1.53,23.15,23.15,0,0,0-.21,2.41v.92h5.44l.09-2.11.08-2.12.39-2.74c.21-1.51.56-3.75.77-5s.57-3.3.8-4.61.61-3.34.82-4.52l.4-2.16,0-1.85v-1.86l-.42-.86-.42-.86-.57-.55-.57-.55-.94-.47-.93-.48-2.79-.62-1.92-.14-1.92-.15-2.48.16c-1.36.08-3.27.25-4.25.36l-1.78.22h-2.43l-.18.85c-.09.47-.36,1.59-.6,2.48a12.9,12.9,0,0,0-.37,1.67,9.89,9.89,0,0,0,1.44-.32c.77-.21,2.4-.55,3.62-.76l2.23-.38,2-.08,2-.08,2.58.45.86.43.86.42.48.72.49.72v2.27l-.25,1.24-.26,1.24-5.34,0-5.34,0-1.75.48a22.43,22.43,0,0,0-2.37.78,4.14,4.14,0,0,1-.75.3,8.62,8.62,0,0,0-1.27.7l-1.14.71-.89.89a9.7,9.7,0,0,0-2.39,3.53l-.49,1.15-.23,1.3-.22,1.29v2.72l.21,1.13.22,1.14.4.74a9.86,9.86,0,0,0,.9,1.32l.5.58.89.54.89.54,1,.29a17.71,17.71,0,0,0,1.89.42l.88.14,2-.06Zm1.86-4.15-1.19.07-.79-.21a7.36,7.36,0,0,1-1.45-.54l-.68-.35-.36-.43a6.58,6.58,0,0,1-.69-1l-.32-.61-.06-1.43-.06-1.42.25-.87a14.47,14.47,0,0,1,.72-1.84l.47-1,.9-.89.9-.89,1-.46.95-.46,1.19-.29,1.19-.28h7.42l.23.1.24.1-.2,1.16c-.11.64-.37,1.8-.57,2.58s-.58,1.91-.82,2.53S219,120,219,120.05a7.51,7.51,0,0,1-.54,1l-.54.91-.89.89a6.58,6.58,0,0,1-1,.88,2.81,2.81,0,0,0-.67.37l-.55.37-1.2.38-1.2.38-1.19.06Zm-26.27,4.21,1.63,0,1.85-.22c1-.12,2.38-.32,3-.45s1.54-.34,2.3-.54a7.89,7.89,0,0,0,1.26-.43,7,7,0,0,0,.39-1.5c.15-.76.34-1.79.42-2.28a5.14,5.14,0,0,0,.1-.95s-.14,0-.25.09a11.31,11.31,0,0,1-1.62.68l-1.43.53-2,.4-2,.39-1.73-.06-1.73-.06-1-.34-1-.34-.76-.66-.76-.67-.51-.91-.5-.92-.24-1.23-.24-1.23v-3.18l.29-1.93.3-1.93.3-1c.17-.57.37-1.24.43-1.49s.34-.94.61-1.55a21.87,21.87,0,0,1,1.06-2.11l.57-1,.71-.73.7-.73.75-.46.75-.47,1-.29a17.48,17.48,0,0,1,2.07-.47l1.11-.17,1.64.08,1.63.08,1.93.39,1.93.38.78.29c.43.17.81.3.83.3a9.38,9.38,0,0,0,.23-1.23c.1-.67.29-1.78.41-2.46a7.06,7.06,0,0,0,.16-1.3A8,8,0,0,0,199,97.6c-.68-.07-2.51-.21-4.07-.3l-2.84-.16-2,.15-2,.15-1.48.32-1.49.31-1,.38a13.62,13.62,0,0,0-1.71.84c-.4.25-.8.5-1.18.76a20,20,0,0,0-1.56,1.42l-1.13,1.12-.64.93a22.79,22.79,0,0,0-1.34,2.37l-.71,1.44-.54,1.55c-.3.86-.71,2.26-.92,3.12l-.39,1.56-.14,1.41-.13,1.41v3.71l.14,1.08.14,1.08.44,1.11.45,1.11.51.8.51.8.82.81.82.8.86.46.87.45,1.13.32c.62.17,1.52.37,2,.44a24.44,24.44,0,0,0,2.51.15Zm-47.21,0,1.63,0,1.64-.15c.9-.08,2.36-.25,3.26-.38s2.45-.41,3.45-.63l1.82-.4.09-.67c0-.37.25-1.46.45-2.43l.36-1.77-.08-.08-.08-.08-.55.27c-.31.15-1.26.5-2.12.78l-1.55.51-1.64.32-1.63.32h-5.2l-.89-.29a13.34,13.34,0,0,1-1.6-.63l-.71-.35-1.17-1.06-.46-.8-.46-.8-.28-1-.29-1v-3.71l.25-1.66.26-1.65,4.46-.21,8.26,0,8.26,0,.25-1c.13-.58.34-1.79.46-2.67l.22-1.62V104l-.24-1-.23-1-.39-.67a8.37,8.37,0,0,0-.84-1.19,5.48,5.48,0,0,0-1-.89,11.8,11.8,0,0,0-1.27-.77l-.74-.4-1.3-.31-1.29-.31-1.6-.16-1.6-.15-1.48.1-1.49.09-1.78.35-1.78.34-1.11.44a19.09,19.09,0,0,0-2.08,1,14.86,14.86,0,0,0-1.63,1.08c-.37.3-1,.88-1.42,1.29a14.36,14.36,0,0,0-1.35,1.64,20.81,20.81,0,0,0-1.12,1.93c-.29.57-.67,1.37-.84,1.78s-.49,1.24-.69,1.85-.54,1.78-.74,2.6c-.22,1-.42,2-.58,3l-.24,1.5v4.42l.23,1a16.25,16.25,0,0,0,.53,1.78,11.37,11.37,0,0,0,.68,1.49,8.67,8.67,0,0,0,1,1.31,12.85,12.85,0,0,0,1.35,1.2,11.28,11.28,0,0,0,1.62.95l.87.4,1.22.29c.67.16,1.68.35,2.24.43s1.76.14,2.66.15Zm2.8-20.91c-4.11,0-7.47,0-7.47-.07s.17-.55.39-1.15.59-1.48.83-2l.45-.89,1-1,1-1,1-.47a10.82,10.82,0,0,1,1.56-.61,17.89,17.89,0,0,1,2.07-.25l1.49-.09,1.14.15,1.14.14.83.38.83.38.45.49a5.28,5.28,0,0,1,.66.88l.21.39.14.87.13.87-.15,1.45-.16,1.45Zm-44.17,34,.09-.24a2.3,2.3,0,0,0,.09-.67c0-.24.1-1.12.23-1.95s.43-2.75.67-4.26l.8-5.05q.29-1.8.54-3.6a5.07,5.07,0,0,1,.27-1.3,2.73,2.73,0,0,1,.46.7l.37.7.82.83.82.83,1,.41,1,.4,1.21.16,1.2.15,1.54-.09,1.53-.09,1.66-.43,1.66-.43.89-.41a17.73,17.73,0,0,0,1.93-1.08l1-.68,1-1a23.12,23.12,0,0,0,1.67-1.89,9.34,9.34,0,0,0,.7-1,4.57,4.57,0,0,1,.42-.7,17,17,0,0,0,1-2.11c.35-.81.89-2.28,1.21-3.26l.57-1.78.3-1.55c.16-.84.37-2.25.47-3.11l.17-1.58-.1-1.33-.1-1.34-.31-1.33-.31-1.34-.5-1-.5-1-1-1-1-1-2.29-1.19-1.26-.3-1.26-.3-1.26-.1-1.27-.09-1.4.16-1.41.17-1.14.29-1.15.29-1,.46c-.55.26-1.34.69-1.77,1a8.26,8.26,0,0,0-1,.7,5,5,0,0,1-.59.45l-.39.26.27-1.3c.15-.72.28-1.39.28-1.49V97.9H97.92l-.47,3c-.27,1.65-.68,4.2-.92,5.67q-.81,4.88-1.64,9.73c-.24,1.42-.64,3.7-.89,5s-.61,3.32-.81,4.38-.56,3.07-.81,4.45c-.3,1.64-.61,3.27-.91,4.9s-.59,3.07-.89,4.6c-.24,1.23-.48,2.38-.52,2.56l-.08.34Zm9.31-17.09-.81-.14-.81-.14-.82-.38-.83-.38-.57-.54-.58-.55-.33-.74a10.45,10.45,0,0,1-.52-1.55l-.19-.79.08-1.28.07-1.28.39-2c.28-1.53.56-3.06.83-4.6s.64-3.52.85-4.65l.39-2.06.85-.7a13.94,13.94,0,0,1,1.65-1.16l.79-.45,1-.33,1-.32,2.67-.15,1.09.23,1.09.23.77.35.76.36.65.64.64.65.35.69a9.15,9.15,0,0,1,.59,1.64l.25,1-.07,2.82-.08,2.82-.38,1.67c-.21.91-.61,2.32-.89,3.11l-.5,1.45-.62,1.18a21.47,21.47,0,0,1-1.17,1.94,8.26,8.26,0,0,1-1.07,1.21c-.34.29-.7.58-1.06.85l-.54.41-2.52.85-2.48.15Z"/></g></g></svg>