<svg xmlns="http://www.w3.org/2000/svg" viewBox="0 0 322.52 227.12"><defs><style>.cls-1{opacity:0.15;isolation:isolate;}.cls-2{fill:#202121;}.cls-3{fill:#0f549d;}.cls-4{fill:#b41f36;}.cls-5{fill:#329947;}</style></defs><g id="Layer_2" data-name="Layer 2"><g id="Layer_1-2" data-name="Layer 1"><g class="cls-1"><rect class="cls-2" width="322.52" height="227.12" rx="29.88"/></g><path class="cls-3" d="M130.42,55.36H103c-13.34,0-22.31,9-22.31,22.31v39.91s0,0,0,.06c1,5,6.3,8.77,12.2,8.77,6.52,0,11.43-4.58,11.43-10.65V95.83h16.79V115.5c0,11.22-14.44,16.51-24.2,16.56a26.42,26.42,0,0,1-15.51-4.87.29.29,0,0,0-.3,0h0a.28.28,0,0,0-.41.25v44.05a.28.28,0,0,0,.28.29h28.25c9.95,0,21.53-9.41,21.53-21.53V55.64A.29.29,0,0,0,130.42,55.36Z"/><path class="cls-4" d="M185.62,55.36H158.41c-13.55,0-22.31,8.66-22.31,22V100a.26.26,0,0,0,.16.25.29.29,0,0,0,.31,0,17.39,17.39,0,0,1,11-4.34h29.25v5.33A91.42,91.42,0,0,0,160,98.89a13.52,13.52,0,0,0-13.5,13.5v.26a13.51,13.51,0,0,0,13.5,13.5,88.29,88.29,0,0,0,16.82-2V129H147.53a15.55,15.55,0,0,1-10.95-4.32.28.28,0,0,0-.48.2v46.64a.29.29,0,0,0,.28.29h28c10,0,21.53-9.41,21.53-21.53V55.64A.28.28,0,0,0,185.62,55.36Z"/><path class="cls-5" d="M200.62,125.61a.28.28,0,0,0,.29.28h12.17a6.25,6.25,0,1,0,0-12.49H200.91a.29.29,0,0,0-.29.29Z"/><path class="cls-5" d="M241.59,55.36h-27c-7.17,0-13,2.43-16.9,6.7h0a21.68,21.68,0,0,0-5.67,14.64V95.55a.28.28,0,0,0,.29.28H225a8.27,8.27,0,0,1,0,16.54.29.29,0,1,0,0,.57c5.07,0,9,3.52,9,8s-3.89,8-9,8H192.36a.29.29,0,0,0-.29.29v42.24a.29.29,0,0,0,.29.28h28c10,0,21.54-9.41,21.54-21.53V55.64A.29.29,0,0,0,241.59,55.36Z"/><path class="cls-5" d="M200.91,111.12h12.17a6.06,6.06,0,0,0,6-6,6.49,6.49,0,0,0-6.24-6.25H200.91a.29.29,0,0,0-.29.29v11.66A.28.28,0,0,0,200.91,111.12Z"/></g></g></svg>