<svg viewBox="0 0 1102.59 289.89" xmlns="http://www.w3.org/2000/svg"><g fill="#fff"><path d="m433.83 221.17h-23.92v-23.64h-.58q-14.88 27.14-46.1 27.14-53.4 0-53.4-63.61v-89.28h23.78v85.49q0 47.26 36.18 47.27 17.5 0 28.81-12.91t11.31-33.77v-86.08h23.93z"/><path d="m491.69 199.58h-.58v90.31h-23.93v-218.11h23.93v26.22h.58q17.65-29.76 51.64-29.76 28.89 0 45.08 20.06t16.2 53.8q0 37.5-18.24 60t-49.89 22.54q-29.02.03-44.79-25.06zm-.58-60.25v20.86q0 18.52 12 31.44t30.56 12.91q21.74 0 34.07-16.63t12.33-46.25q0-24.94-11.53-39.1t-31.19-14.15q-20.86 0-33.55 14.52t-12.69 36.4z"/><path d="m697.19 219.71q-8.46 4.66-22.32 4.67-39.25 0-39.24-43.77v-88.41h-25.63v-20.42h25.68v-36.47l23.93-7.73v44.2h37.59v20.42h-37.65v84.18q0 15 5.11 21.45t16.92 6.42a25.18 25.18 0 0 0 15.61-5z"/><path d="m834.27 152.45h-105.48q.59 24.95 13.42 38.52t35.31 13.57q25.25 0 46.39-16.63v22.47q-19.7 14.3-52.08 14.3-31.67 0-49.75-20.35t-18.08-57.27q0-34.87 19.77-56.82t49.09-22q29.32 0 45.37 19t16 52.67zm-24.51-20.28q-.15-20.71-10-32.24t-27.35-11.52a38.67 38.67 0 0 0 -28.74 12.11q-11.82 12.11-14.59 31.66z"/><path d="m957.34 214.31q-17.22 10.37-40.85 10.36-31.95 0-51.57-20.79t-19.62-53.88q0-36.91 21.15-59.3t56.46-22.42q19.7 0 34.72 7.29v24.51q-16.63-11.67-35.63-11.67-22.9 0-37.57 16.41t-14.63 43.11q0 26.26 13.79 41.43t37 15.17q19.54 0 36.76-13z"/><path d="m1102.59 221.17h-23.93v-86.08q0-46.68-34.72-46.69-17.51 0-29.47 13.5t-12 34.65v84.62h-23.89v-221.17h23.93v96.58h.58q17.2-28.31 49-28.3 50.48 0 50.48 60.84z"/></g><path d="m240.39 97.72-117.57 77.14c25.46 16 50.28 31.72 75.27 47.17 10.92 6.75 22 13.37 33.41 19.21 7.71 3.94 11.2 1.6 12.65-6.89a46 46 0 0 0 .59-7.69c0-37.25.19-74.5 0-111.74a35 35 0 0 0 -4.35-17.2z" fill="#50f1ec"/><path d="m5.35 97.19a40.33 40.33 0 0 0 -5.34 21q0 53.07.2 106.13a65.38 65.38 0 0 0 .79 9.78c1.4 9 4.75 11.22 12.94 7 11.23-5.72 22-12.29 32.77-18.93 25.12-15.54 50.1-31.33 75.44-47.22z" fill="#ff41a0"/><path d="m227.63 85.85c-31.84-19.25-63.93-38.08-96-56.93-6.25-3.68-13.16-4-19.46-.29q-47.23 27.73-94.17 55.85a37.39 37.39 0 0 0 -13.35 13.06l116.82 77.76.4-.25.25.16 117.57-77.15a33.46 33.46 0 0 0 -12.06-12.21z" fill="#503f9f"/></svg>